<?xml version="1.0" encoding="UTF-8"?>
<svg width="128pt" height="128pt" version="1.1" viewBox="0 0 128 128" xmlns="http://www.w3.org/2000/svg">
 <g>
  <path d="m6.3984 0h115.2c3.5352 0 6.3984 3.5352 6.3984 6.3984v115.2c0 3.5352-2.8672 6.3984-6.3984 6.3984h-115.2c-3.5352 0-6.3984-3.5352-6.3984-6.3984v-115.2c0-3.5352 2.8672-6.3984 6.3984-6.3984z" fill="#f2f4f8"/>
  <path d="m81.633 57.703h-7.2461l2.5195-11.336h0.18359c0.66797 0 1.3242-0.12891 1.9414-0.37891 1.5977-0.65625 2.7539-2.0781 3.0664-3.7773 0.39844-1.7656-0.085937-3.6133-1.3008-4.9492-1.4453-1.6133-3.2695-2.832-5.3086-3.5508-3.8047-1.3008-7.332-0.71875-9.7266 1.5781l-0.03125 0.023438c-0.03125 0.03125-0.066407 0.054688-0.097657 0.085938s-0.027343 0.046874-0.046874 0.070312h0.003906c-0.066406 0.078125-0.125 0.16016-0.17188 0.25391-0.023438 0.039063-0.042969 0.082032-0.0625 0.125-0.035157 0.097656-0.058594 0.19922-0.066407 0.30469 0 0.039062-0.015624 0.074218-0.019531 0.11328v0.027344 21.41h-3.7891v-24.562c0-3.8242-3.1016-6.9258-6.9258-6.9258-3.8281 0-6.9297 3.1016-6.9297 6.9258 0 2.1875 0.23828 4.3633 0.71484 6.4961l4.0156 18.066h-5.9883c-2.0859 0-3.7773 1.6914-3.7773 3.7773 0 2.0859 1.6914 3.7773 3.7773 3.7773h3.7773v35.27c0 0.33203 0.13281 0.65234 0.37109 0.89062 0.23438 0.23438 0.55469 0.36719 0.89062 0.36719h25.188c0.33594 0 0.65625-0.13281 0.89062-0.36719 0.23828-0.23828 0.37109-0.55859 0.37109-0.89062v-35.27h3.7773c2.0859 0 3.7773-1.6914 3.7773-3.7773 0-2.0859-1.6914-3.7773-3.7773-3.7773zm-6.9648-21.609c1.6172 0.57422 3.0664 1.5391 4.2227 2.8086 0.023437 0.027344 0.046875 0.054687 0.070313 0.078125 0.64844 0.74219 0.89844 1.75 0.67187 2.707-0.14453 0.875-0.72266 1.6133-1.5391 1.9688-0.32031 0.125-0.66016 0.19141-1.0078 0.19141h-1.1914c-0.78906 0-1.5391-0.34766-2.0508-0.94531l-5.5312-6.4531-0.003906-0.003907c1.9609-1.0703 4.2969-1.1992 6.3594-0.35156zm-6.8906 3.5977 4.1562 4.8438c0.22266 0.25391 0.47266 0.48828 0.73828 0.69141 0.058594 0.046876 0.12109 0.09375 0.18359 0.14063 0.26953 0.19922 0.55469 0.37109 0.85547 0.51172l0.027343 0.011719c0.20703 0.097656 0.42188 0.17969 0.64062 0.25l-2.5703 11.562h-4.0312zm-16.98-0.60156h0.003906c-0.4375-1.9531-0.65625-3.9492-0.65625-5.9492 0-2.4336 1.9727-4.4062 4.4102-4.4062 2.4336 0 4.4062 1.9727 4.4062 4.4062v24.562h-4.0312zm1.8672 60.176v-26.449h22.672v26.449zm22.672-28.969h-22.672v-5.0391h22.672zm6.2969-7.5586-35.266 0.003907c-0.69531 0-1.2617-0.56641-1.2617-1.2617 0-0.69531 0.56641-1.2578 1.2617-1.2578h35.266c0.69531 0 1.2617 0.5625 1.2617 1.2578 0 0.69531-0.56641 1.2617-1.2617 1.2617z" fill="#16252c"/>
  <path d="m91.711 31.254c-2.0898 0-3.7812-1.6914-3.7812-3.7812 0-0.69531-0.5625-1.2578-1.2578-1.2578s-1.2617 0.5625-1.2617 1.2578c0 2.0898-1.6914 3.7812-3.7773 3.7812-0.69531 0-1.2578 0.5625-1.2578 1.2578 0 0.69531 0.5625 1.2617 1.2578 1.2617 2.0859 0 3.7773 1.6914 3.7773 3.7773 0 0.69531 0.56641 1.2578 1.2617 1.2578s1.2578-0.5625 1.2578-1.2578c0-2.0859 1.6914-3.7773 3.7812-3.7773 0.69531 0 1.2578-0.56641 1.2578-1.2617 0-0.69531-0.5625-1.2578-1.2578-1.2578zm-5.0391 2.5195c-0.35938-0.48047-0.78125-0.90234-1.2617-1.2617 0.48047-0.35938 0.90234-0.78125 1.2617-1.2578 0.35938 0.47656 0.78125 0.89844 1.2578 1.2578-0.47656 0.35938-0.89844 0.78125-1.2578 1.2617z" fill="#16252c"/>
  <path d="m45.805 29.781-1.3984-2.0977c-2.6602 1.7812-3.3789 5.3789-1.6055 8.0469l2.0977-1.3984h-0.003907c-1.0039-1.5078-0.59375-3.543 0.91016-4.5508z" fill="#16252c"/>
 </g>
</svg>
