<?xml version="1.0" encoding="UTF-8"?>
<svg width="100pt" height="100pt" version="1.1" viewBox="0 0 100 100" xmlns="http://www.w3.org/2000/svg">
 <g fill="#16252c">
  <path d="m71.875 42.188h-8.9922l3.125-14.062h0.23047c0.82812 0 1.6445-0.16016 2.4102-0.46875 1.9805-0.81641 3.4141-2.582 3.8047-4.6875 0.49609-2.1875-0.10938-4.4805-1.6172-6.1406-1.7891-1.9961-4.0547-3.5117-6.5859-4.4062-4.7188-1.6133-9.0938-0.89062-12.062 1.9609l-0.039062 0.03125c-0.039063 0.039063-0.082032 0.066407-0.12109 0.10547-0.039063 0.039063-0.035156 0.058594-0.058594 0.085938-0.082031 0.09375-0.15234 0.19922-0.20703 0.3125-0.03125 0.050781-0.054688 0.10156-0.078125 0.15625-0.046875 0.12109-0.074219 0.25-0.085938 0.37891 0 0.046875-0.019531 0.09375-0.023437 0.14062v0.03125 26.562h-4.6992v-30.469c0-4.7461-3.8477-8.5938-8.5938-8.5938s-8.5938 3.8477-8.5938 8.5938c0 2.7109 0.29688 5.4141 0.88281 8.0586l4.9844 22.41h-7.4297c-2.5898 0-4.6875 2.0977-4.6875 4.6875s2.0977 4.6875 4.6875 4.6875h4.6875v43.75c0 0.41406 0.16406 0.8125 0.45703 1.1055s0.69141 0.45703 1.1055 0.45703h31.25c0.41406 0 0.8125-0.16406 1.1055-0.45703s0.45703-0.69141 0.45703-1.1055v-43.75h4.6875c2.5898 0 4.6875-2.0977 4.6875-4.6875s-2.0977-4.6875-4.6875-4.6875zm-8.6406-26.805c2.0039 0.71094 3.8047 1.9062 5.2383 3.4805 0.027344 0.035157 0.054688 0.070313 0.089844 0.10156 0.80078 0.91797 1.1133 2.168 0.83203 3.3555-0.18359 1.082-0.89844 2.0039-1.9102 2.4414-0.39453 0.15625-0.82031 0.23828-1.25 0.23828h-1.4805 0.003906c-0.98047 0-1.9102-0.42969-2.5469-1.1719l-6.8633-8.0078c2.4297-1.3281 5.3242-1.4883 7.8867-0.4375zm-8.5469 4.4609 5.1562 6.0117c0.27734 0.3125 0.58203 0.60156 0.91406 0.85547 0.074219 0.058593 0.15234 0.11719 0.23047 0.17187v0.003907c0.33203 0.24219 0.6875 0.45703 1.0586 0.63281l0.03125 0.011719h0.003906c0.25781 0.12109 0.52344 0.22656 0.79297 0.3125l-3.1875 14.344h-5zm-21.062-0.75c-0.53906-2.4219-0.8125-4.8945-0.8125-7.375 0-3.0195 2.4492-5.4688 5.4688-5.4688s5.4688 2.4492 5.4688 5.4688v30.469h-5zm2.3125 74.656v-32.812h28.125v32.812zm28.125-35.938h-28.125v-6.25h28.125zm7.8125-9.375h-43.75c-0.86328 0-1.5625-0.69922-1.5625-1.5625s0.69922-1.5625 1.5625-1.5625h43.75c0.86328 0 1.5625 0.69922 1.5625 1.5625s-0.69922 1.5625-1.5625 1.5625z"/>
  <path d="m84.375 9.375c-2.5898 0-4.6875-2.0977-4.6875-4.6875 0-0.86328-0.69922-1.5625-1.5625-1.5625s-1.5625 0.69922-1.5625 1.5625c0 2.5898-2.0977 4.6875-4.6875 4.6875-0.86328 0-1.5625 0.69922-1.5625 1.5625s0.69922 1.5625 1.5625 1.5625c2.5898 0 4.6875 2.0977 4.6875 4.6875 0 0.86328 0.69922 1.5625 1.5625 1.5625s1.5625-0.69922 1.5625-1.5625c0-2.5898 2.0977-4.6875 4.6875-4.6875 0.86328 0 1.5625-0.69922 1.5625-1.5625s-0.69922-1.5625-1.5625-1.5625zm-6.25 3.125c-0.44531-0.58984-0.97266-1.1172-1.5625-1.5625 0.58984-0.44531 1.1172-0.97266 1.5625-1.5625 0.44531 0.58984 0.97266 1.1172 1.5625 1.5625-0.58984 0.44531-1.1172 0.97266-1.5625 1.5625z"/>
  <path d="m27.43 7.5508-1.7344-2.6016c-3.3008 2.207-4.1953 6.6719-1.9961 9.9805l2.6016-1.7344c-1.2461-1.8711-0.73828-4.3984 1.1289-5.6445z"/>
 </g>
</svg>
